<svg width="76" height="62" viewBox="0 0 76 62" fill="none" xmlns="http://www.w3.org/2000/svg">
<path fill-rule="evenodd" clip-rule="evenodd" d="M14.5 0C6.49187 0 0 6.49187 0 14.5V47.5C0 55.5081 6.49187 62 14.5 62H61.5C69.5081 62 76 55.5081 76 47.5V14.5C76 6.49187 69.5081 0 61.5 0H14.5ZM9 14.5C9 11.4624 11.4624 9 14.5 9H61.5C64.5376 9 67 11.4624 67 14.5V47.5C67 50.5376 64.5376 53 61.5 53H14.5C11.4624 53 9 50.5376 9 47.5V14.5ZM48.1982 24.6423C49.3698 23.4707 49.3698 21.5712 48.1982 20.3997C47.0266 19.2281 45.1271 19.2281 43.9555 20.3997L38.2987 26.0565L32.6418 20.3997C31.4703 19.2281 29.5708 19.2281 28.3992 20.3997C27.2276 21.5712 27.2276 23.4707 28.3992 24.6423L34.056 30.2992L28.3992 35.956C27.2276 37.1276 27.2276 39.0271 28.3992 40.1987C29.5708 41.3702 31.4703 41.3702 32.6418 40.1987L38.2987 34.5418L43.9555 40.1987C45.1271 41.3702 47.0266 41.3702 48.1982 40.1987C49.3698 39.0271 49.3698 37.1276 48.1982 35.956L42.5413 30.2992L48.1982 24.6423Z" fill="#808080"/>
</svg>
